<?xml version="1.0" standalone="no"?><!DOCTYPE svg PUBLIC "-//W3C//DTD SVG 1.1//EN" "http://www.w3.org/Graphics/SVG/1.1/DTD/svg11.dtd"><svg t="1636346589091" class="icon" viewBox="0 0 1024 1024" version="1.1" xmlns="http://www.w3.org/2000/svg" p-id="5756" xmlns:xlink="http://www.w3.org/1999/xlink" width="512" height="512"><defs><style type="text/css"></style></defs><path d="M488.3 374.6c-9.5 41.3-12.5 119.2-81.8 148.3-88.6 37.2-155.3 13.9-250.9 49.9C30 620.2-14.9 766.9 72.4 890.3c92.7 131 429.7 123.4 549 66.5C793.8 874.6 855.3 689.2 854 515.2c-1.4-180.2-52.6-281.1-147.2-294-78-10.6-186.6 14.8-218.5 153.4z" fill="#FFFFFF" p-id="5757"></path><path d="M524.1 439.2c-9.5 41.3-12.5 119.2-81.8 148.3-88.6 37.2-155.3 13.9-250.9 49.9C65.7 684.8 2.7 804.8 147.2 931.1c54.3 47.4 291.2 115.8 464.2 28.6 158.5-80 238.1-231.2 247.2-394 10.2-182.3-21.4-267.1-116-279.9-78.1-10.6-186.6 14.8-218.5 153.4z" fill="#9F58BC" p-id="5758"></path><path d="M404 1023.1c-36.8 0-73.9-3.4-109.3-10.2C203 995.1 127.7 956 77 899.8c-27.9-31-47.4-65.5-58-102.7C9 762 7.8 725.7 15.4 692 28.7 632.9 68.3 585.9 124 562.8c50.6-20.9 94.2-24.8 136.4-28.4 39.3-3.4 76.5-6.7 117.4-23.9 49-20.6 58.3-71.7 65.8-112.8 1.4-7.7 2.7-15 4.2-21.6l19.5 4.5-19.5-4.5c33.1-144 146-181.6 240.6-168.8 53.7 7.3 99 42.4 130.9 101.5 31 57.5 47.7 135.6 48.4 226.1 0.4 48.3-4.7 95.5-15 140.5-11.7 51.1-30 98-54.4 139.5-27.6 46.9-63 86.8-105.3 118.5-46.8 35.1-102.5 60.6-165.4 75.7-38.4 9.3-80.7 14-123.6 14z m250.3-778c-24.5 0-55.8 4.2-85.4 20.4-41.4 22.6-69 62.9-82 119.6-1.3 5.7-2.6 12.6-3.9 19.8-4 22.2-9.1 49.7-21.3 75.6-14.9 31.6-38 54.2-68.4 66.9-46.7 19.6-88.7 23.3-129.4 26.8-41 3.6-79.7 7-124.7 25.6-22.2 9.2-41 22.9-55.7 40.8-14.2 17.3-24 37.5-29.2 60.3-6.1 27.1-5.1 56.6 3.1 85.4 8.9 31.2 25.4 60.4 49.2 86.8 56.7 62.8 137.6 89.3 195.6 100.5 71.3 13.8 150.1 12.6 216-3.2 109.9-26.4 192.5-85.5 245.6-175.6 22.3-37.9 39.1-81.1 49.9-128.2 9.6-42 14.3-86.1 14-131.3-1.3-163.4-58-276.5-144.7-288.3-7.5-1-17.4-1.9-28.7-1.9z" fill="#424649" p-id="5759"></path><path d="M873.4 343.8c-31.6-26.3-37.1-109-37.1-109 0-73.1-66.5-132.9-147.8-132.9h-37.6c-81.3 0-145.6 58.9-147.8 132.9-1 35.8-21.5 83.8-49.3 103.9-27.9 20.1-80.7 30.8-80.7 30.8s28.3 42.3 100.7 41.2c74.8-1.1 95.5-30.2 95.5-30.2s17.8 25.4 41.6 44.5c19.2 15.5 63.7 29.4 63.7 29.4s39.8-17.4 58.4-28.6c20.7-12.6 40.8-43.3 40.8-43.3s27.8 35.7 86.4 39.4c69.9 4.4 113.4-46.2 113.4-46.2s-63.9-1.6-100.2-31.9z" fill="#FFFFFF" p-id="5760"></path><path d="M879.8 348.5c-31.6-28-46.2-105.7-46.2-105.7 0-77.7-69.9-127.5-101.2-133.2l-30.2-2.7c-81.3 0-139.1 67.5-141.3 146.2-1 38.1-21.5 89-49.3 110.4-27.9 21.3-80.7 32.7-80.7 32.7s30.4 32.1 99.1 9.2c48-16 46.2-39.1 46.2-39.1s3.8 37.4 27.5 57.7c19.2 16.5 71.1 36.4 71.1 36.4S724.5 436 743 424c20.7-13.4 30.2-47.1 30.2-47.1s37.4 42.3 95.9 46.2c69.9 4.6 103-45.3 103-45.3s-56.1 2.8-92.3-29.3z" fill="#E4EADC" p-id="5761"></path><path d="M675.6 476.7l-7.1-2.2c-4.9-1.5-48.7-15.6-70.3-33-12.9-10.4-24.1-22.4-32.2-31.8-16.6 10.2-45.3 21.3-92 22h-3.1c-80.1 0-113.2-48-114.6-50.1l-16.6-24.8 29.3-5.9c13.5-2.8 53.1-13.1 73-27.4 20.9-15.1 40.1-56.3 41-88.2 2.5-85.4 76.2-152.4 167.8-152.4h37.6c92.3 0 167.4 68.2 167.8 152.2 2.1 28.8 11.9 79.3 30 94.4 30.4 25.3 87.1 27.2 87.7 27.2l42 1.2-27.3 31.9c-2 2.3-46.8 53.5-119.9 53.5-3.2 0-6.5-0.1-9.9-0.3-38.7-2.4-66-17.3-82.3-29.6-8.7 10.5-20.5 23-33.2 30.7-19.5 11.8-59.1 29.2-60.8 29.9l-6.9 2.7z m-106.8-133l16.8 26.2c0.2 0.2 16.6 23.4 37.8 40.5 10.2 8.2 33.7 17.9 50.1 23.6 11.9-5.4 36.3-16.6 49-24.3 13.7-8.3 29.5-29.7 34.5-37.2l15.7-23.8 16.8 22.4c1.7 2 24.6 28.8 71.9 31.8 25.1 1.6 46.2-5.1 62.2-13.4-20.9-5.2-44.6-14-62.9-29.3-16.6-13.8-29.1-39.2-37.1-75.4-5.6-25.2-7.1-46.7-7.2-47.6v-1.3c0-29.6-13.1-57.7-36.8-79-24.3-21.9-56.6-33.9-91-33.9H651c-69.8 0-126 49.9-127.8 113.5-1.1 39.2-23 94.6-57.7 119.5-14.1 10.1-33.1 18-49.9 23.6 13.3 6.8 32.3 12.5 57.9 12.1 32.4-0.5 52.6-6.7 63.8-11.8 10.1-4.6 14.8-9.2 15.9-10.3l15.6-25.9z" fill="#424649" p-id="5762"></path><path d="M668.2 113.4c-11 0-20-9-20-20V22.6c0-11 9-20 20-20s20 9 20 20v70.8c0 11-9 20-20 20z" fill="#424649" p-id="5763"></path></svg>